<svg aria-hidden="true" style="position: absolute; width: 0; height: 0; overflow: hidden;" version="1.1" xmlns="http://www.w3.org/2000/svg" xmlns:xlink="http://www.w3.org/1999/xlink">
<defs>
<symbol id="icon-arrow-left" viewBox="0 0 18 32">
<path d="M16.355 31.669c0.221 0.221 0.497 0.331 0.8 0.331s0.579-0.11 0.8-0.331c0.441-0.441 0.441-1.159 0-1.6l-14.069-14.069 14.069-14.069c0.441-0.441 0.441-1.159 0-1.6s-1.159-0.441-1.6 0l-14.869 14.869c-0.441 0.441-0.441 1.159 0 1.6l14.869 14.869z"></path>
</symbol>
<symbol id="icon-arrow-right" viewBox="0 0 18 32">
<path d="M1.931 0.331c-0.221-0.221-0.497-0.331-0.8-0.331s-0.579 0.11-0.8 0.331c-0.441 0.441-0.441 1.159 0 1.6l14.069 14.069-14.069 14.069c-0.441 0.441-0.441 1.159 0 1.6s1.159 0.441 1.6 0l14.869-14.869c0.441-0.441 0.441-1.159 0-1.6l-14.869-14.869z"></path>
</symbol>
<symbol id="icon-cart-fill" viewBox="0 0 32 32">
<path fill="#fff" style="fill: var(--color1, #fff)" d="M9.6 25.6c-1.76 0-3.2 1.44-3.2 3.2s1.44 3.2 3.2 3.2c1.76 0 3.2-1.44 3.2-3.2s-1.44-3.2-3.2-3.2zM0 0v3.2h3.2l5.76 12.16-2.24 3.84c-0.16 0.48-0.32 1.12-0.32 1.6 0 1.76 1.44 3.2 3.2 3.2h19.2v-3.2h-18.56c-0.16 0-0.32-0.16-0.32-0.32v-0.16l1.44-2.72h11.84c1.28 0 2.24-0.64 2.72-1.6l5.76-10.4c0.32-0.32 0.32-0.48 0.32-0.8 0-0.96-0.64-1.6-1.6-1.6h-23.68l-1.44-3.2h-5.28zM25.6 25.6c-1.76 0-3.2 1.44-3.2 3.2s1.44 3.2 3.2 3.2c1.76 0 3.2-1.44 3.2-3.2s-1.44-3.2-3.2-3.2z"></path>
</symbol>
<symbol id="icon-commerce-and-shopping" viewBox="0 0 32 32">
<path d="M26.5 11.5h-21c-1.193 0.001-2.337 0.476-3.181 1.319s-1.318 1.987-1.319 3.181v10.5c0.001 1.193 0.476 2.337 1.319 3.18s1.987 1.318 3.181 1.32h21c1.193-0.001 2.337-0.476 3.18-1.32s1.318-1.987 1.32-3.18v-10.5c-0.001-1.193-0.476-2.337-1.32-3.181s-1.987-1.318-3.18-1.319zM30 26.5c-0.001 0.928-0.37 1.818-1.026 2.474s-1.546 1.025-2.474 1.026h-21c-0.928-0.001-1.818-0.37-2.474-1.026s-1.025-1.546-1.026-2.474v-10.5c0.001-0.928 0.37-1.818 1.026-2.474s1.546-1.025 2.474-1.026h21c0.928 0.001 1.818 0.37 2.474 1.026s1.025 1.546 1.026 2.474v10.5z"></path>
<path d="M27 24.5h-3c-0.398 0-0.779 0.158-1.061 0.439s-0.439 0.663-0.439 1.061v1c0 0.398 0.158 0.779 0.439 1.061s0.663 0.439 1.061 0.439h3c0.398 0 0.779-0.158 1.061-0.439s0.439-0.663 0.439-1.061v-1c0-0.398-0.158-0.779-0.439-1.061s-0.663-0.439-1.061-0.439zM27.5 27c0 0.133-0.053 0.26-0.146 0.354s-0.221 0.146-0.354 0.146h-3c-0.133 0-0.26-0.053-0.354-0.146s-0.146-0.221-0.146-0.354v-1c0-0.133 0.053-0.26 0.146-0.354s0.221-0.146 0.354-0.146h3c0.133 0 0.26 0.053 0.354 0.146s0.146 0.221 0.146 0.354v1z"></path>
<path d="M8.5 23c0-0.133-0.053-0.26-0.146-0.354s-0.221-0.146-0.354-0.146h-3.5c-0.133 0-0.26 0.053-0.354 0.146s-0.146 0.221-0.146 0.354 0.053 0.26 0.146 0.354c0.094 0.094 0.221 0.146 0.354 0.146h3.5c0.133 0 0.26-0.053 0.354-0.146s0.146-0.221 0.146-0.354z"></path>
<path d="M14 23c0-0.133-0.053-0.26-0.146-0.354s-0.221-0.146-0.354-0.146h-3.5c-0.133 0-0.26 0.053-0.354 0.146s-0.146 0.221-0.146 0.354 0.053 0.26 0.146 0.354c0.094 0.094 0.221 0.146 0.354 0.146h3.5c0.133 0 0.26-0.053 0.354-0.146s0.146-0.221 0.146-0.354z"></path>
<path d="M19 22.5h-3.5c-0.133 0-0.26 0.053-0.354 0.146s-0.146 0.221-0.146 0.354 0.053 0.26 0.146 0.354c0.094 0.094 0.221 0.146 0.354 0.146h3.5c0.133 0 0.26-0.053 0.354-0.146s0.146-0.221 0.146-0.354-0.053-0.26-0.146-0.354c-0.094-0.094-0.221-0.146-0.354-0.146z"></path>
<path d="M25 23c0-0.133-0.053-0.26-0.146-0.354s-0.221-0.146-0.354-0.146h-3.5c-0.133 0-0.26 0.053-0.354 0.146s-0.146 0.221-0.146 0.354 0.053 0.26 0.146 0.354c0.094 0.094 0.221 0.146 0.354 0.146h3.5c0.133 0 0.26-0.053 0.354-0.146s0.146-0.221 0.146-0.354z"></path>
<path d="M9.5 27h-3.5c-0.133 0-0.26 0.053-0.354 0.146s-0.146 0.221-0.146 0.354 0.053 0.26 0.146 0.354c0.094 0.094 0.221 0.146 0.354 0.146h3.5c0.133 0 0.26-0.053 0.354-0.146s0.146-0.221 0.146-0.354-0.053-0.26-0.146-0.354c-0.094-0.094-0.221-0.146-0.354-0.146z"></path>
<path d="M16 27h-3.5c-0.133 0-0.26 0.053-0.354 0.146s-0.146 0.221-0.146 0.354 0.053 0.26 0.146 0.354c0.094 0.094 0.221 0.146 0.354 0.146h3.5c0.133 0 0.26-0.053 0.354-0.146s0.146-0.221 0.146-0.354-0.053-0.26-0.146-0.354c-0.094-0.094-0.221-0.146-0.354-0.146z"></path>
<path d="M5 18.5h3c0.265 0 0.52-0.105 0.707-0.293s0.293-0.442 0.293-0.707v-2c0-0.265-0.105-0.52-0.293-0.707s-0.442-0.293-0.707-0.293h-3c-0.265 0-0.52 0.105-0.707 0.293s-0.293 0.442-0.293 0.707v2c0 0.265 0.105 0.52 0.293 0.707s0.442 0.293 0.707 0.293zM7 17.5v-0.5h1v0.5h-1zM8 16h-1v-0.5h1v0.5zM5 15.5h1v2h-1v-2z"></path>
<path d="M25.025 15.939c0.139-0.139 0.305-0.25 0.487-0.325s0.377-0.114 0.574-0.114c0.197 0 0.392 0.039 0.574 0.114s0.347 0.186 0.487 0.325c0.094 0.091 0.221 0.141 0.352 0.14s0.256-0.054 0.349-0.146c0.093-0.093 0.145-0.218 0.146-0.349s-0.049-0.257-0.14-0.352c-0.469-0.468-1.105-0.731-1.768-0.731s-1.299 0.263-1.768 0.731c-0.091 0.094-0.141 0.221-0.14 0.352s0.054 0.257 0.146 0.349c0.093 0.093 0.218 0.145 0.349 0.146s0.257-0.049 0.352-0.14z"></path>
<path d="M25.025 16.647c-0.091 0.094-0.142 0.221-0.14 0.352s0.054 0.256 0.146 0.349 0.218 0.145 0.349 0.146c0.131 0.001 0.257-0.049 0.352-0.14 0.046-0.047 0.102-0.083 0.162-0.108s0.126-0.038 0.191-0.038c0.066 0 0.131 0.013 0.192 0.038s0.116 0.062 0.162 0.108c0.094 0.091 0.221 0.142 0.352 0.14s0.256-0.054 0.349-0.146 0.145-0.218 0.146-0.349c0.001-0.131-0.049-0.257-0.14-0.352-0.139-0.139-0.305-0.25-0.487-0.325s-0.377-0.114-0.574-0.114c-0.197 0-0.392 0.039-0.574 0.114s-0.347 0.186-0.487 0.325z"></path>
<path d="M11 15h6.5c0.133 0 0.26-0.053 0.354-0.146s0.146-0.221 0.146-0.354-0.053-0.26-0.146-0.354c-0.094-0.094-0.221-0.146-0.354-0.146h-6.5c-0.133 0-0.26 0.053-0.354 0.146s-0.146 0.221-0.146 0.354 0.053 0.26 0.146 0.354c0.094 0.094 0.221 0.146 0.354 0.146z"></path>
<path d="M21.5 14.5c0-0.133-0.053-0.26-0.146-0.354s-0.221-0.146-0.354-0.146h-1.5c-0.133 0-0.26 0.053-0.354 0.146s-0.146 0.221-0.146 0.354 0.053 0.26 0.146 0.354c0.094 0.094 0.221 0.146 0.354 0.146h1.5c0.133 0 0.26-0.053 0.354-0.146s0.146-0.221 0.146-0.354z"></path>
</symbol>
<symbol id="icon-compare" viewBox="0 0 32 32">
<path d="M30.316 1.684v28.632h-5.053v-28.632h5.053zM25.263 0h-1.684v32h8.421v-32h-6.737zM18.526 15.906v14.409h-5.053v-14.409h5.053zM13.474 14.222h-1.684v17.778h8.421v-17.778h-6.737zM1.684 8.795v21.521h5.053v-21.521h-5.053zM0 7.111h8.421v24.889h-8.421v-24.889z"></path>
</symbol>
<symbol id="icon-list" viewBox="0 0 31 32">
<path d="M12.117 9.034h12.19c0.285 0 0.517-0.231 0.517-0.517s-0.232-0.517-0.517-0.517h-12.19c-0.285 0-0.517 0.231-0.517 0.517s0.232 0.517 0.517 0.517z"></path>
<path d="M12.117 16.792h12.19c0.285 0 0.517-0.231 0.517-0.517s-0.232-0.517-0.517-0.517h-12.19c-0.285 0-0.517 0.231-0.517 0.517s0.232 0.517 0.517 0.517z"></path>
<path d="M12.117 24.55h12.19c0.285 0 0.517-0.231 0.517-0.517s-0.232-0.517-0.517-0.517h-12.19c-0.285 0-0.517 0.231-0.517 0.517s0.232 0.517 0.517 0.517z"></path>
<path d="M30.513 0.242h-29.996c-0.285 0-0.517 0.231-0.517 0.517v29.996c0 0.286 0.232 0.517 0.517 0.517h29.996c0.285 0 0.517-0.231 0.517-0.517v-29.996c0-0.286-0.232-0.517-0.517-0.517zM29.996 30.238h-28.962v-28.962h28.962v28.962z"></path>
<path d="M6.465 9.797l1.256-0.66 1.256 0.66-0.239-1.398 1.016-0.991-1.404-0.204-0.628-1.272-0.628 1.272-1.404 0.204 1.016 0.991-0.24 1.398z"></path>
<path d="M6.465 17.597l1.256-0.66 1.256 0.66-0.239-1.398 1.016-0.99-1.404-0.204-0.628-1.272-0.628 1.272-1.404 0.204 1.016 0.99-0.24 1.398z"></path>
<path d="M6.465 25.584l1.256-0.66 1.256 0.66-0.239-1.398 1.016-0.99-1.404-0.204-0.628-1.272-0.628 1.272-1.404 0.204 1.016 0.99-0.24 1.398z"></path>
</symbol>
<symbol id="icon-logo" viewBox="0 0 53 32">
<path d="M25.984 24.742v7.258h-24.282l-0.045-5.958 11.2-11.558c0.806-0.806 1.449-1.613 1.926-2.419 0.508-0.836 0.762-1.553 0.762-2.15 0-0.717-0.254-1.254-0.762-1.613-0.478-0.388-1.165-0.582-2.061-0.582-1.225 0-2.598 0.358-4.122 1.075-1.493 0.687-3.002 1.658-4.525 2.912l-3.494-6.72c4.659-3.196 9.169-4.794 13.53-4.794 2.15 0 4.062 0.358 5.734 1.075 1.702 0.687 3.031 1.658 3.987 2.912 0.986 1.254 1.478 2.703 1.478 4.346s-0.538 3.33-1.613 5.062c-1.045 1.702-2.554 3.539-4.525 5.51l-5.645 5.645h12.454zM53.325 18.784v6.81h-3.808v6.406h-8.512v-6.406h-13.798v-6.138l8.288-18.861h8.781l-7.706 18.189h4.435v-6.362h8.512v6.362h3.808z"></path>
</symbol>
<symbol id="icon-placeholder" viewBox="0 0 31 32">
<path d="M15.515 13.689c1.996 0 3.62-1.624 3.62-3.62s-1.624-3.62-3.62-3.62-3.62 1.624-3.62 3.62c0 1.996 1.624 3.62 3.62 3.62zM15.515 7.483c1.426 0 2.586 1.16 2.586 2.586s-1.16 2.586-2.586 2.586-2.586-1.16-2.586-2.586c0-1.426 1.16-2.586 2.586-2.586z"></path>
<path d="M15.424 28.561l7.934-11.459c2.976-3.967 2.546-10.488-0.921-13.954-1.873-1.874-4.364-2.905-7.013-2.905s-5.14 1.032-7.013 2.905c-3.467 3.466-3.897 9.987-0.933 13.939l7.946 11.475zM9.142 3.879c1.678-1.678 3.909-2.602 6.282-2.602s4.603 0.924 6.282 2.602c3.129 3.128 3.514 9.018 0.814 12.618l-7.095 10.247-7.106-10.262c-2.689-3.585-2.303-9.475 0.825-12.603z"></path>
<path d="M21.782 22.484c-0.284-0.035-0.541 0.169-0.574 0.453s0.17 0.541 0.453 0.574c5.439 0.64 8.335 2.366 8.335 3.365 0 1.404-5.509 3.362-14.481 3.362s-14.481-1.958-14.481-3.362c0-1 2.897-2.725 8.335-3.365 0.283-0.033 0.486-0.291 0.453-0.574s-0.29-0.489-0.574-0.453c-5.445 0.641-9.249 2.447-9.249 4.392 0 2.185 5.329 4.396 15.515 4.396s15.515-2.212 15.515-4.396c0-1.945-3.803-3.751-9.249-4.392z"></path>
</symbol>
<symbol id="icon-product" viewBox="0 0 31 32">
<path d="M30.961 21.563c-0.215-0.784-0.873-1.368-1.677-1.489v-11.791h1.027c0.284 0 0.514-0.23 0.514-0.514v-5.137c0-0.284-0.23-0.514-0.514-0.514h-22.605c-0.284 0-0.514 0.23-0.514 0.514v5.137c0 0.284 0.23 0.514 0.514 0.514h1.027v10.275h-0.514c-1.275-0.003-2.524 0.362-3.596 1.053v-2.594c0-0.284-0.23-0.514-0.514-0.514h-3.596c-0.284 0-0.514 0.23-0.514 0.514v11.816c0 0.284 0.23 0.514 0.514 0.514h3.596c0.284 0 0.514-0.23 0.514-0.514v-2.594c1.072 0.69 2.321 1.055 3.596 1.052h8.436c0.585-0.001 1.166-0.078 1.731-0.228l11.123-2.98c1.095-0.298 1.743-1.424 1.451-2.521zM8.22 3.145h21.577v4.11h-21.577v-4.11zM9.761 8.283h18.495v11.88l-5.963 1.599c-0.246-0.585-0.746-1.025-1.359-1.193l-6.922-1.857c-0.39-0.103-0.791-0.154-1.194-0.154h-3.057v-10.275zM3.596 28.319h-2.569v-10.789h2.569v10.789zM29.243 23.091l-11.121 2.98c-0.478 0.128-0.971 0.193-1.466 0.193h-8.436c-1.223 0.003-2.414-0.394-3.391-1.13l-0.205-0.154v-4.11l0.205-0.154c0.977-0.736 2.168-1.133 3.391-1.13h4.598c0.314-0 0.627 0.040 0.93 0.121l6.92 1.855c0.409 0.113 0.708 0.463 0.755 0.885 0.006 0.021 0.012 0.042 0.021 0.062-0.006 0.022-0.011 0.044-0.014 0.067 0 0.084-0.011 0.167-0.034 0.247-0.121 0.448-0.527 0.759-0.99 0.76-0.090 0.001-0.18-0.011-0.268-0.034l-4.367-1.171c-0.179-0.053-0.373-0.005-0.506 0.126s-0.185 0.324-0.135 0.504c0.050 0.18 0.194 0.319 0.375 0.362l4.367 1.172c0.174 0.046 0.354 0.069 0.535 0.069 0.924-0.001 1.733-0.618 1.977-1.509 0.029-0.103 0.048-0.209 0.058-0.315l6.263-1.679c0.045-0.011 0.093-0.023 0.139-0.030 0.512-0.066 0.992 0.257 1.125 0.756 0.023 0.087 0.035 0.176 0.034 0.266 0.001 0.465-0.311 0.872-0.76 0.994z"></path>
<path d="M16.44 10.338h5.138c0.284 0 0.514-0.23 0.514-0.514s-0.23-0.514-0.514-0.514h-5.138c-0.284 0-0.514 0.23-0.514 0.514s0.23 0.514 0.514 0.514z"></path>
</symbol>
<symbol id="icon-search" viewBox="0 0 32 32">
<path d="M31.719 30.368l-7.776-7.776c2.086-2.398 3.349-5.527 3.349-8.947 0-7.528-6.123-13.644-13.644-13.644-7.528 0-13.644 6.123-13.644 13.644s6.123 13.644 13.644 13.644c3.42 0 6.549-1.263 8.947-3.349l7.776 7.776c0.184 0.184 0.433 0.284 0.674 0.284s0.49-0.092 0.674-0.284c0.369-0.369 0.369-0.979 0-1.348zM1.911 13.644c0-6.471 5.265-11.729 11.729-11.729 6.471 0 11.729 5.265 11.729 11.729s-5.258 11.736-11.729 11.736c-6.464 0-11.729-5.265-11.729-11.736z"></path>
</symbol>
<symbol id="icon-shopping-cart" viewBox="0 0 32 32">
<path d="M31.867 5.6c-0.133-0.133-0.267-0.267-0.533-0.267h-25.333l-0.667-3.467c0-0.267-0.4-0.533-0.667-0.533h-4c-0.4-0-0.667 0.267-0.667 0.667s0.267 0.667 0.667 0.667h3.467l3.2 16.267c0.4 2.133 2.4 3.733 4.533 3.733h15.333c0.4 0 0.667-0.267 0.667-0.667s-0.267-0.667-0.667-0.667h-15.2c-1.067 0-2.133-0.533-2.667-1.467l19.467-2.667c0.267 0 0.533-0.267 0.533-0.533l2.667-10.667c0 0 0-0.267-0.133-0.4zM28.133 16l-19.467 2.533-2.4-12h24.133l-2.267 9.467z"></path>
<path d="M11.333 24c-1.867 0-3.333 1.467-3.333 3.333s1.467 3.333 3.333 3.333c1.867 0 3.333-1.467 3.333-3.333s-1.467-3.333-3.333-3.333zM11.333 29.333c-1.067 0-2-0.933-2-2s0.933-2 2-2 2 0.933 2 2c0 1.067-0.933 2-2 2z"></path>
<path d="M24.664 24c-1.867 0-3.333 1.467-3.333 3.333s1.467 3.333 3.333 3.333c1.867 0 3.333-1.467 3.333-3.333s-1.467-3.333-3.333-3.333zM24.664 29.333c-1.067 0-2-0.933-2-2s0.933-2 2-2c1.067 0 2 0.933 2 2s-0.933 2-2 2z"></path>
</symbol>
<symbol id="icon-star" viewBox="0 0 32 32">
<path d="M6.465 31.244c-0.119 0-0.237-0.037-0.337-0.109-0.176-0.128-0.265-0.345-0.227-0.56l1.77-10.32-7.498-7.308c-0.156-0.152-0.212-0.38-0.145-0.587s0.247-0.359 0.463-0.39l10.362-1.506 4.634-9.39c0.096-0.196 0.296-0.32 0.513-0.32s0.418 0.124 0.513 0.32l4.634 9.39 10.362 1.506c0.216 0.031 0.395 0.182 0.463 0.39 0.067 0.207 0.012 0.435-0.145 0.587l-7.498 7.309 1.77 10.32c0.037 0.215-0.052 0.432-0.227 0.56-0.176 0.129-0.411 0.146-0.604 0.044l-9.268-4.872-9.269 4.872c-0.084 0.044-0.175 0.065-0.266 0.065zM1.804 12.936l6.883 6.709c0.135 0.131 0.196 0.321 0.164 0.507l-1.625 9.473 8.508-4.472c0.167-0.088 0.365-0.088 0.533 0l8.507 4.472-1.624-9.473c-0.032-0.186 0.030-0.375 0.164-0.507l6.883-6.709-9.511-1.382c-0.187-0.027-0.348-0.144-0.431-0.313l-4.254-8.618-4.254 8.619c-0.084 0.169-0.245 0.286-0.431 0.313l-9.511 1.382z"></path>
</symbol>
<symbol id="icon-time" viewBox="0 0 31 32">
<path d="M15.515 0.242c-8.555 0-15.515 6.96-15.515 15.515s6.96 15.515 15.515 15.515c8.555 0 15.515-6.96 15.515-15.515s-6.96-15.515-15.515-15.515zM15.515 30.238c-7.985 0-14.481-6.496-14.481-14.481s6.496-14.481 14.481-14.481c7.985 0 14.481 6.496 14.481 14.481s-6.496 14.481-14.481 14.481z"></path>
<path d="M15.515 3.345c-0.285 0-0.517 0.231-0.517 0.517v11.895h-7.758c-0.285 0-0.517 0.231-0.517 0.517s0.232 0.517 0.517 0.517h8.275c0.285 0 0.517-0.231 0.517-0.517v-12.412c0-0.286-0.232-0.517-0.517-0.517z"></path>
</symbol>
<symbol id="icon-user" viewBox="0 0 32 32">
<path d="M23.4 20.779c-0.025-0.003-3.709 0.106-4.257-3.841 0.608-0.425 1.169-0.976 1.664-1.645 0.961-1.301 1.581-2.934 1.801-4.699 0.076-0.069 0.139-0.154 0.181-0.254 0.399-0.951 0.602-1.966 0.602-3.018 0-4.037-3.045-7.321-6.788-7.321-0.979 0-1.929 0.226-2.826 0.671-0.342 0.026-0.678 0.086-0.999 0.179-1.537 0.444-2.788 1.584-3.523 3.21-0.713 1.578-0.853 3.436-0.396 5.232 0.097 0.379 0.22 0.752 0.366 1.108 0.040 0.096 0.098 0.178 0.169 0.246 0.357 2.756 1.669 5.039 3.457 6.286-0.549 3.954-4.232 3.844-4.257 3.847-2.649 0.090-4.777 2.271-4.777 4.942v5.559c0 0.398 0.323 0.72 0.721 0.72h22.918c0.398 0 0.721-0.323 0.721-0.72v-5.559c-0-2.671-2.128-4.852-4.777-4.942zM13.178 2.234c0.263-0.076 0.541-0.121 0.825-0.134 0.106-0.005 0.209-0.033 0.303-0.082 0.729-0.383 1.502-0.578 2.297-0.578 2.948 0 5.347 2.638 5.347 5.88 0 0.097-0.003 0.194-0.007 0.291-0.572-0.581-1.366-0.942-2.244-0.942h-4.911c-0.292 0-0.569-0.092-0.802-0.265-0.199-0.148-0.352-0.347-0.444-0.576-0.142-0.354-0.492-0.575-0.873-0.551-0.383 0.024-0.704 0.29-0.801 0.661-0.285 1.093-0.852 2.101-1.63 2.918-0.724-2.981 0.583-5.941 2.94-6.622zM12.551 14.696c-0.938-1.145-1.552-2.692-1.746-4.385 0.909-0.81 1.628-1.819 2.096-2.937 0.071 0.066 0.146 0.127 0.223 0.186 0.483 0.361 1.059 0.552 1.664 0.552h4.911c0.695 0 1.294 0.417 1.561 1.013 0 0.005-0.001 0.010-0.001 0.015 0 4.067-2.36 7.376-5.261 7.376-1.262 0-2.487-0.646-3.447-1.819zM14.207 17.64c0.571 0.207 1.172 0.317 1.792 0.317 0.615 0 1.215-0.107 1.79-0.313 0.264 1.374 1.028 2.572 2.096 3.397l-3.784 5.388c-0.025 0.035-0.059 0.053-0.102 0.053s-0.077-0.018-0.102-0.053l-3.784-5.389c1.067-0.826 1.831-2.024 2.094-3.4zM26.736 30.559h-21.477v-4.838c0-1.933 1.572-3.505 3.505-3.505 0.026 0 1.186-0.028 2.102-0.444l3.852 5.485c0.293 0.417 0.772 0.666 1.281 0.666 0 0 0 0 0 0 0.51 0 0.989-0.249 1.281-0.666l3.851-5.485c1.045 0.444 2.074 0.444 2.1 0.444 1.933 0 3.505 1.572 3.505 3.505v4.838z"></path>
</symbol>
<symbol id="icon-menu" viewBox="0 0 39 32">
<path d="M0.862 29.538h37.662c0.476 0 0.862 0.386 0.862 0.862s-0.386 0.862-0.862 0.862h-37.662c-0.476 0-0.862-0.386-0.862-0.862s0.386-0.862 0.862-0.862z"></path>
<path d="M0.862 14.769h37.662c0.476 0 0.862 0.386 0.862 0.862s-0.386 0.862-0.862 0.862h-37.662c-0.476 0-0.862-0.386-0.862-0.862s0.386-0.862 0.862-0.862z"></path>
<path d="M0.862 0h37.662c0.476 0 0.862 0.386 0.862 0.862s-0.386 0.862-0.862 0.862h-37.662c-0.476 0-0.862-0.386-0.862-0.862s0.386-0.862 0.862-0.862z"></path>
</symbol>
</defs>
</svg>
