<svg width="25" height="15" viewBox="0 0 25 15" fill="none" xmlns="http://www.w3.org/2000/svg">
    <path d="M12.18 11.598V15H0.798L0.777 12.207L6.027 6.789C6.405 6.411 6.706 6.033 6.93 5.655C7.168 5.263 7.287 4.927 7.287 4.647C7.287 4.311 7.168 4.059 6.93 3.891C6.706 3.709 6.384 3.618 5.964 3.618C5.39 3.618 4.746 3.786 4.032 4.122C3.332 4.444 2.625 4.899 1.911 5.487L0.273 2.337C2.457 0.838999 4.571 0.0899992 6.615 0.0899992C7.623 0.0899992 8.519 0.257999 9.303 0.593999C10.101 0.915999 10.724 1.371 11.172 1.959C11.634 2.547 11.865 3.226 11.865 3.996C11.865 4.766 11.613 5.557 11.109 6.369C10.619 7.167 9.912 8.028 8.988 8.952L6.342 11.598H12.18ZM24.9959 8.805V11.997H23.2109V15H19.2209V11.997H12.7529V9.12L16.6379 0.278999H20.7539L17.1419 8.805H19.2209V5.823H23.2109V8.805H24.9959Z" fill="url(#paint0_linear_1_450)"/>
    <defs>
        <linearGradient id="paint0_linear_1_450" x1="26" y1="21" x2="0.245284" y2="21" gradientUnits="userSpaceOnUse">
            <stop stop-color="#8EE901"/>
            <stop offset="1" stop-color="#4F9C2C"/>
        </linearGradient>
    </defs>
</svg>
